<svg id="color_line" height="512" viewBox="0 0 74 74" width="512" xmlns="http://www.w3.org/2000/svg" data-name="color line"><g fill="#323c6b"><path d="m21.114 17.78a.5.5 0 0 1 -.36-.846 2.869 2.869 0 0 0 .517-2.3c-.055-.412-.148-.817-.242-1.222a11.56 11.56 0 0 1 -.294-1.636 6.124 6.124 0 0 1 1.555-4.559.5.5 0 0 1 .738.675 5.107 5.107 0 0 0 -1.3 3.8 10.543 10.543 0 0 0 .272 1.496c.1.436.2.873.26 1.315a3.711 3.711 0 0 1 -.788 3.124.5.5 0 0 1 -.358.153z"/><path d="m12.875 20.317a.5.5 0 0 1 -.36-.846 2.869 2.869 0 0 0 .517-2.3c-.054-.413-.148-.818-.242-1.224a11.385 11.385 0 0 1 -.293-1.635 6.121 6.121 0 0 1 1.553-4.557.5.5 0 1 1 .738.674 5.106 5.106 0 0 0 -1.3 3.8 10.652 10.652 0 0 0 .271 1.493c.1.437.2.874.26 1.317a3.711 3.711 0 0 1 -.788 3.123.5.5 0 0 1 -.356.155z"/><path d="m28 20.317a.5.5 0 0 1 -.36-.846 2.869 2.869 0 0 0 .517-2.3c-.054-.413-.148-.818-.242-1.224a11.385 11.385 0 0 1 -.293-1.635 6.121 6.121 0 0 1 1.554-4.558.5.5 0 1 1 .738.674 5.106 5.106 0 0 0 -1.3 3.8 10.652 10.652 0 0 0 .271 1.493c.1.437.2.874.26 1.317a3.711 3.711 0 0 1 -.788 3.123.5.5 0 0 1 -.357.156z"/><path d="m21.61 66.763a18.717 18.717 0 0 1 -8.5-1.958.5.5 0 0 1 .449-.894 17.721 17.721 0 0 0 8.053 1.852.5.5 0 0 1 0 1z"/><path d="m11.5 63.763a.5.5 0 0 1 -.288-.091l-.424-.31a.5.5 0 1 1 .58-.813l.42.3a.5.5 0 0 1 -.288.909z"/><path d="m58.542 20.294a.5.5 0 0 1 -.382-.823q.252-.3.531-.574a.5.5 0 0 1 .7.713c-.165.162-.32.332-.469.507a.5.5 0 0 1 -.38.177z"/><path d="m61.345 18.234-.485-.875a8.264 8.264 0 0 1 .837-.381 8.484 8.484 0 0 1 6.6.3.5.5 0 0 1 -.426.905 7.487 7.487 0 0 0 -5.826-.267 6.877 6.877 0 0 0 -.7.318z"/></g><path d="m48.774 39.8 14.053-5.214a5.075 5.075 0 1 0 6.2-6.965 5.075 5.075 0 1 0 -9.249-1.26l-14.055 5.217" fill="#eeefee"/><path d="m69.15 22.64a5.038 5.038 0 0 0 -3.82-.13 5.094 5.094 0 0 0 -3.14 6.1l-15.39 5.87-1.08-2.9 14.06-5.22a5.071 5.071 0 0 1 9.37-3.72z" fill="#e1e6e9"/><path d="m17.215 27.339c9.7-3.6 27.759-.938 31.063 7.969s-8.651 22.7-18.348 26.3c-13.121 4.869-20.611-1.708-23.916-10.62s-1.919-18.781 11.201-23.649z" fill="#e7aa6c"/><path d="m44.2 30.34c-7.02-2.98-16.91-3.3-23.23-.95-13.13 4.86-14.51 14.74-11.21 23.65a20.358 20.358 0 0 0 6.49 9.31c-5-1.82-8.33-6.2-10.24-11.36-3.3-8.91-1.92-18.78 11.21-23.65 7.56-2.81 20.21-1.81 26.98 3z" fill="#d09865"/><path d="m21.6 63.767a15.475 15.475 0 0 1 -7.549-1.867c-3.711-2.03-6.651-5.744-8.505-10.738s-2.046-9.727-.559-13.689c1.774-4.727 5.83-8.294 12.055-10.6 9.482-3.518 28.227-1.111 31.705 8.264 1.556 4.193-.036 9.885-4.368 15.617-3.907 5.167-9.379 9.507-14.279 11.324a24.555 24.555 0 0 1 -8.5 1.689zm-4.21-35.959c-5.94 2.2-9.8 5.574-11.466 10.017-1.4 3.733-1.208 8.225.56 12.99s4.551 8.3 8.048 10.211c4.165 2.281 9.285 2.319 15.225.115 4.729-1.754 10.026-5.967 13.825-10.992 4.122-5.454 5.663-10.8 4.229-14.667-3.293-8.876-21.289-11.061-30.42-7.674z" fill="#323c6b"/><path d="m48.774 40.3a.5.5 0 0 1 -.174-.969l14.053-5.211a.5.5 0 0 1 .626.255 4.576 4.576 0 0 0 8.429-3.544 4.512 4.512 0 0 0 -2.84-2.733.5.5 0 0 1 -.274-.729 4.575 4.575 0 1 0 -8.336-1.139.5.5 0 0 1 -.309.6l-14.049 5.216a.5.5 0 1 1 -.348-.937l13.641-5.061a5.576 5.576 0 1 1 10.536 1.311 5.5 5.5 0 0 1 2.92 3.125 5.577 5.577 0 0 1 -10.06 4.726l-13.641 5.061a.5.5 0 0 1 -.174.029z" fill="#323c6b"/><path d="m38.893 49.926a.65.65 0 0 1 -.457-1.112 21.849 21.849 0 0 0 4.246-5.641.65.65 0 1 1 1.164.577 23.116 23.116 0 0 1 -4.5 5.988.649.649 0 0 1 -.453.188z" fill="#fff"/><path d="m44.138 41.851a.638.638 0 0 1 -.178-.025.649.649 0 0 1 -.447-.8c.062-.215.121-.43.163-.642a.65.65 0 1 1 1.275.249c-.048.248-.117.5-.188.75a.65.65 0 0 1 -.625.468z" fill="#fff"/></svg>