<?xml version="1.0" encoding="iso-8859-1"?>
<!-- Generator: Adobe Illustrator 19.0.0, SVG Export Plug-In . SVG Version: 6.00 Build 0)  -->
<svg version="1.1" id="Capa_1" xmlns="http://www.w3.org/2000/svg" xmlns:xlink="http://www.w3.org/1999/xlink" x="0px" y="0px"
	 viewBox="0 0 371.2 371.2" style="enable-background:new 0 0 371.2 371.2;" xml:space="preserve">
<g>
	<g>
		<path d="M75.264,149.664c10.24,0,18.432-8.192,18.432-18.432S85.504,112.8,75.264,112.8c-3.072,0-5.12,2.048-5.12,5.12
			c0,3.072,2.048,5.12,5.12,5.12c4.608,0,8.192,3.584,8.192,8.192c0,4.608-3.584,8.192-8.192,8.192
			c-10.24,0-18.432,8.192-18.432,18.432s8.192,18.432,18.432,18.432c3.072,0,5.12-2.048,5.12-5.12s-2.048-5.12-5.12-5.12
			c-4.608,0-8.192-3.584-8.192-8.192C67.072,153.248,70.656,149.664,75.264,149.664z"/>
	</g>
</g>
<g>
	<g>
		<path d="M110.08,149.664c10.24,0,18.432-8.192,18.432-18.432S120.32,112.8,110.08,112.8c-3.072,0-5.12,2.048-5.12,5.12
			c0,3.072,2.048,5.12,5.12,5.12c4.608,0,8.192,3.584,8.192,8.192c0,4.608-3.584,8.192-8.192,8.192
			c-10.24,0-18.432,8.192-18.432,18.432s8.192,18.432,18.432,18.432c3.072,0,5.12-2.048,5.12-5.12s-2.048-5.12-5.12-5.12
			c-4.608,0-8.192-3.584-8.192-8.192C101.888,153.248,105.472,149.664,110.08,149.664z"/>
	</g>
</g>
<g>
	<g>
		<path d="M348.16,269.984h-26.112c29.696-15.872,49.152-45.568,49.152-80.384c0-3.072-2.048-5.12-5.12-5.12h-15.36
			c-2.56-35.84-32.768-64.512-69.12-64.512c-11.264,0-22.016,2.56-31.744,7.68l-35.328-89.6c-1.024-2.56-4.096-4.096-6.656-3.072
			s-4.096,4.096-3.072,6.656l36.352,91.136c-2.048,1.536-3.584,3.072-5.632,4.608L182.272,74.4c-2.048-2.048-5.12-2.56-7.168-0.512
			c-2.048,2.048-2.56,5.12-0.512,7.168l53.76,64c-9.216,10.752-14.848,24.576-16.384,39.936h-15.36c-3.072,0-5.12,2.048-5.12,5.12
			c0,34.816,19.456,64.512,48.128,79.872H131.584c28.672-14.848,48.128-45.056,48.128-79.872c0-3.072-2.048-5.12-5.12-5.12H5.12
			c-3.072,0-5.12,2.048-5.12,5.12c0,34.816,19.456,64.512,48.128,79.872H17.92c-8.704,0-15.872,7.168-15.872,15.872V292
			c0,8.704,7.168,15.872,15.872,15.872h7.68c-1.536,2.56-2.56,5.632-2.56,9.216c0,10.752,8.704,19.456,19.456,19.456h26.112
			c10.752,0,19.456-8.704,19.456-19.456c0-3.072-1.024-6.144-2.56-9.216H284.16c-1.536,2.56-2.56,5.632-2.56,9.216
			c0,10.752,8.704,19.456,19.456,19.456h26.112c10.752,0,19.456-8.704,19.456-19.456c0-3.072-1.024-6.144-2.56-9.216h4.096
			c8.704,0,15.872-7.168,15.872-15.872v-6.144C364.032,277.152,356.864,269.984,348.16,269.984z M244.736,143.008l10.24,25.088
			c1.024,2.048,2.56,3.072,4.608,3.072c0.512,0,1.024,0,2.048-0.512c2.56-1.024,4.096-4.096,3.072-6.656l-10.752-27.136
			c8.192-4.608,17.92-7.168,27.648-7.168c31.232,0,56.32,24.064,59.392,54.272H222.208
			C223.744,167.584,231.936,152.736,244.736,143.008z M201.728,194.72h14.848H345.6h14.848c-2.56,41.472-36.864,74.752-79.36,74.752
			C239.104,269.472,204.288,236.704,201.728,194.72z M10.752,194.72h158.72c-2.56,41.472-37.376,74.752-79.36,74.752
			C47.616,269.472,13.312,236.192,10.752,194.72z M69.12,325.28H43.008c-5.12,0-9.216-4.096-9.216-9.216s4.096-9.216,9.216-9.216
			H69.12c5.12,0.512,9.216,4.608,9.216,9.216C78.336,321.184,74.24,325.28,69.12,325.28z M327.68,325.28h-26.112
			c-5.12,0-9.216-4.096-9.216-9.216s4.096-9.216,9.216-9.216h26.112c5.12,0.512,9.216,4.608,9.216,9.216
			C336.896,321.184,332.8,325.28,327.68,325.28z M354.304,291.488c0,3.072-2.56,5.632-5.632,5.632H327.68h-26.112H69.12H43.008
			H17.92c-3.072,0-5.632-2.56-5.632-5.632v-6.144c0-3.072,2.56-5.632,5.632-5.632h330.752c3.072,0,5.632,2.56,5.632,5.632V291.488z"
			/>
	</g>
</g>
<g>
</g>
<g>
</g>
<g>
</g>
<g>
</g>
<g>
</g>
<g>
</g>
<g>
</g>
<g>
</g>
<g>
</g>
<g>
</g>
<g>
</g>
<g>
</g>
<g>
</g>
<g>
</g>
<g>
</g>
</svg>
