<?xml version="1.0" encoding="iso-8859-1"?>
<!-- Generator: Adobe Illustrator 19.0.0, SVG Export Plug-In . SVG Version: 6.00 Build 0)  -->
<svg version="1.1" id="Capa_1" xmlns="http://www.w3.org/2000/svg" xmlns:xlink="http://www.w3.org/1999/xlink" x="0px" y="0px"
	 viewBox="0 0 512.001 512.001" style="enable-background:new 0 0 512.001 512.001;" xml:space="preserve">
<g>
	<g>
		<path d="M230.328,152.806c-5.619-0.203-10.285,4.165-10.486,9.754c-0.647,17.906-15.113,36.052-24.865,41.752
			c-4.83,2.822-6.456,9.024-3.634,13.853c1.883,3.222,5.271,5.019,8.753,5.019c1.735,0,3.494-0.446,5.1-1.385
			c16.457-9.617,34.005-34.131,34.886-58.506C240.283,157.702,235.917,153.008,230.328,152.806z"/>
	</g>
</g>
<g>
	<g>
		<path d="M324.152,202.274c-5.577-0.477-10.468,3.678-10.933,9.251c-0.005,0.059-0.011,0.148-0.016,0.221
			c-0.389,5.519,3.732,10.341,9.261,10.802c0.287,0.024,0.57,0.035,0.853,0.035c5.211,0,9.64-3.999,10.08-9.286
			c0.005-0.059,0.011-0.149,0.016-0.222C333.802,207.556,329.682,202.736,324.152,202.274z"/>
	</g>
</g>
<g>
	<g>
		<path d="M326.736,179.786c-3.668-8.368-10.41-20.104-21.7-28.503c-4.488-3.34-10.833-2.407-14.17,2.08
			c-3.339,4.486-2.408,10.831,2.08,14.169c6.033,4.488,11.445,11.728,15.24,20.386c1.666,3.8,5.381,6.064,9.28,6.064
			c1.357,0,2.737-0.274,4.06-0.855C326.65,190.881,328.981,184.908,326.736,179.786z"/>
	</g>
</g>
<g>
	<g>
		<path d="M461.669,273.591l-11.554-4.719c1.078-5.656,1.629-11.619,1.629-17.898c0-32.927-12.372-63.5-35.779-88.418
			c-21.533-22.921-51.536-39.575-84.549-46.942c-0.571-1.086-1.263-3.403-1.745-5.011c-1.909-6.386-5.882-19.674-21.202-20.074
			c-0.17-0.004-0.336-0.006-0.505-0.006c-11.385,0-17.979,9.555-22.344,15.877c-0.489,0.709-1.08,1.565-1.664,2.376
			c-0.786-1.412-1.624-3.225-2.225-4.523c-3.528-7.635-9.435-20.412-25.732-20.412c-16.195,0-22.31,12.733-25.964,20.34
			c-0.67,1.394-1.618,3.369-2.486,4.836c-0.695-0.917-1.414-1.917-2-2.731c-4.809-6.687-11.396-15.845-22.527-15.845
			c-0.858,0-1.728,0.06-2.586,0.177c-14.878,2.042-17.749,14.896-19.129,21.074c-0.274,1.232-0.659,2.953-1.017,3.986
			c-32.899,7.4-62.788,24.021-84.257,46.876c-23.406,24.917-35.778,55.492-35.778,88.419c0,6.28,0.551,12.242,1.629,17.898
			l-36.977,15.104C3.236,292.828,0,306.237,0,313.443c0,17.799,17.874,34.903,50.332,48.161l117.057,47.816
			c23.515,9.605,52.073,16.02,80.414,18.062c6.306,0.455,12.442,0.679,18.366,0.679c21.158,0,39.577-2.866,53.018-8.356
			l167.905-68.585c21.672-8.853,24.908-22.262,24.908-29.468C512,303.951,494.125,286.848,461.669,273.591z M185.615,135.245
			c11.763-2.574,14.169-13.348,15.461-19.137c0.375-1.676,0.988-4.424,1.553-5.309c0.052-0.015,0.121-0.034,0.21-0.053
			c1.633,0.923,4.626,5.082,6.269,7.366c4.364,6.066,9.308,12.942,17.847,12.942c0.232,0,0.465-0.008,0.697-0.023
			c12.369-0.853,17.348-11.221,20.643-18.081c3.753-7.813,4.947-8.855,7.707-8.855c2.668,0,3.739,0.851,7.347,8.657
			c3.187,6.896,8.004,17.316,20.476,18.176c0.232,0.016,0.464,0.023,0.697,0.023c8.765,0,13.759-7.234,17.77-13.046
			c1.54-2.232,4.367-6.326,5.875-7.118c0.017,0.001,0.034,0.003,0.05,0.004c0.68,1.019,1.529,3.86,2.053,5.613
			c1.832,6.128,4.898,16.384,16.119,18.84c61.884,13.546,105.105,61.135,105.105,115.728c0,32.509-17.89,52.78-56.301,63.796
			c-35.387,10.149-81.853,10.149-119.189,10.149s-83.802,0-119.189-10.149c-38.411-11.016-56.301-31.288-56.301-63.796
			C80.511,196.379,123.731,148.789,185.615,135.245z M479.434,332.469l-167.905,68.585c-30.101,12.295-92.599,7.54-136.48-10.384
			L57.991,342.854c-25.928-10.591-37.737-22.67-37.737-29.411c0-3.562,4.603-7.568,12.313-10.717l35.664-14.569
			c10.572,21.641,31.626,37.085,62.995,46.081c38.123,10.933,86.168,10.933,124.773,10.933c38.604,0,86.649,0,124.773-10.933
			c31.369-8.997,52.423-24.44,62.996-46.081l10.241,4.183c25.927,10.591,37.736,22.669,37.736,29.411
			C491.746,325.313,487.143,329.319,479.434,332.469z"/>
	</g>
</g>
<g>
</g>
<g>
</g>
<g>
</g>
<g>
</g>
<g>
</g>
<g>
</g>
<g>
</g>
<g>
</g>
<g>
</g>
<g>
</g>
<g>
</g>
<g>
</g>
<g>
</g>
<g>
</g>
<g>
</g>
</svg>
