<svg id="color_line" height="512" viewBox="0 0 74 74" width="512" xmlns="http://www.w3.org/2000/svg" data-name="color line"><path d="m48.93 25.29c-3.03-1.6-6.13-.5-7.91.14a13.849 13.849 0 0 1 5.89-4.12c5.48-1.82 10.99 2.6 11.28 2.83a16.7 16.7 0 0 0 -1.6-3.33 8.665 8.665 0 0 0 -8.4-4.16 7.259 7.259 0 0 0 -5.06 2.64 8.015 8.015 0 0 1 1.95-4.02 6.96 6.96 0 0 1 5.74-1.53 5.63 5.63 0 0 0 -6.79-3.31 7.676 7.676 0 0 0 -4.6 3.73 11.845 11.845 0 0 0 -2.44-9.41 11.845 11.845 0 0 0 -2.44 9.41 7.676 7.676 0 0 0 -4.6-3.73 5.63 5.63 0 0 0 -6.79 3.31 6.96 6.96 0 0 1 5.74 1.53 8.016 8.016 0 0 1 1.95 4.02 7.259 7.259 0 0 0 -5.06-2.64 8.665 8.665 0 0 0 -8.4 4.16 16.7 16.7 0 0 0 -1.6 3.33c.29-.23 5.8-4.65 11.28-2.83a13.849 13.849 0 0 1 5.89 4.12c-1.78-.64-4.88-1.74-7.91-.14-4.26 2.25-3.33 7.35-3.33 7.35s2.39-4.64 7.55-4.04a3.9 3.9 0 0 1 3.79 4.4h7.86a3.9 3.9 0 0 1 3.79-4.4c5.16-.6 7.55 4.04 7.55 4.04s.93-5.1-3.33-7.35zm-5.8-5.99v.02h-.02s0-.01.02-.02zm-12.28.02v-.02c.02.01.02.02.02.02z" fill="#6fc666"/><path d="m26.81 16.83a7.714 7.714 0 0 0 -1.02-.18 8.665 8.665 0 0 0 -8.4 4.16c-.14.22-.27.44-.4.68a8.575 8.575 0 0 1 7.34-2.76 7.259 7.259 0 0 1 5.06 2.64 8.016 8.016 0 0 0 -1.95-4.02 5.106 5.106 0 0 0 -.63-.52z" fill="#65b54e"/><path d="m47.95 13.8a7.975 7.975 0 0 1 2.87-.06 5.63 5.63 0 0 0 -6.79-3.31 7.676 7.676 0 0 0 -4.6 3.73 11.845 11.845 0 0 0 -2.44-9.41 16.015 16.015 0 0 0 -1.36 2.22 11.813 11.813 0 0 1 2.34 9.27 7.676 7.676 0 0 1 4.6-3.73 5.307 5.307 0 0 1 5.38 1.29z" fill="#65b54e"/><path d="m29.95 10.43a5.63 5.63 0 0 0 -6.79 3.31h.01a5.3 5.3 0 0 1 5.32-1.23 7.676 7.676 0 0 1 4.6 3.73 11.563 11.563 0 0 1 0-3.98 7.068 7.068 0 0 0 -3.14-1.83z" fill="#65b54e"/><path d="m56.59 20.81a8.665 8.665 0 0 0 -8.4-4.16 7.42 7.42 0 0 0 -4.94 2.484v.82a8.035 8.035 0 0 1 3.48-1.224 8.639 8.639 0 0 1 7.73 3.2 17.286 17.286 0 0 1 3.73 2.21 16.7 16.7 0 0 0 -1.6-3.33z" fill="#65b54e"/><path d="m48.93 25.29a8.477 8.477 0 0 0 -6.57-.31 15.533 15.533 0 0 0 -2.8 2.53c1.78-.64 4.88-1.74 7.91-.14a5.987 5.987 0 0 1 2.72 2.83 8.637 8.637 0 0 1 2.07 2.44s.93-5.1-3.33-7.35z" fill="#65b54e"/><path d="m22 10.556a.5.5 0 0 1 -.374-.832 9.815 9.815 0 0 1 .835-.838.5.5 0 0 1 .662.75 8.589 8.589 0 0 0 -.749.752.5.5 0 0 1 -.374.168z" fill="#323c6b"/><path d="m24.667 8.5a.5.5 0 0 1 -.22-.949 8.974 8.974 0 0 1 6.4-.505c.3.08.582.178.864.279a.5.5 0 0 1 -.338.941c-.255-.091-.512-.182-.782-.254a8 8 0 0 0 -5.7.437.5.5 0 0 1 -.224.051z" fill="#323c6b"/><path d="m40.92 33.5h-7.86a.5.5 0 0 1 -.5-.567 3.371 3.371 0 0 0 -3.348-3.833 7.244 7.244 0 0 0 -7.048 3.773.513.513 0 0 1 -.519.264.5.5 0 0 1 -.418-.4c-.01-.055-.942-5.489 3.589-7.882a8.65 8.65 0 0 1 6.357-.515 12.286 12.286 0 0 0 -4.261-2.549c-5.039-1.675-10.229 2.285-10.8 2.741a.5.5 0 0 1 -.605.018.5.5 0 0 1 -.184-.571 17.19 17.19 0 0 1 1.647-3.43 9.205 9.205 0 0 1 8.882-4.39 8.521 8.521 0 0 1 3.982 1.486 5.843 5.843 0 0 0 -1.277-2.009 6.388 6.388 0 0 0 -5.277-1.4.532.532 0 0 1 -.484-.175.5.5 0 0 1 -.1-.489 6.085 6.085 0 0 1 7.387-3.618 7.583 7.583 0 0 1 3.8 2.422 12.572 12.572 0 0 1 2.706-7.911.5.5 0 0 1 .405-.208.5.5 0 0 1 .405.208 12.566 12.566 0 0 1 2.701 7.904 7.58 7.58 0 0 1 3.8-2.421 6.078 6.078 0 0 1 7.389 3.618.5.5 0 0 1 -.532.671 6.413 6.413 0 0 0 -5.33 1.395 5.855 5.855 0 0 0 -1.277 2.008 8.522 8.522 0 0 1 3.982-1.486 9.214 9.214 0 0 1 8.885 4.4 17.16 17.16 0 0 1 1.645 3.422.5.5 0 0 1 -.781.56c-.583-.462-5.774-4.421-10.812-2.747a12.3 12.3 0 0 0 -4.262 2.549 8.647 8.647 0 0 1 6.357.515c4.532 2.394 3.6 7.828 3.589 7.882a.5.5 0 0 1 -.937.14 7.223 7.223 0 0 0 -7.048-3.775 3.371 3.371 0 0 0 -3.353 3.836.5.5 0 0 1 -.5.567zm-7.34-1h6.82a4.589 4.589 0 0 1 .9-2.707 4.729 4.729 0 0 1 3.352-1.693 7.963 7.963 0 0 1 7.2 3.07 6.067 6.067 0 0 0 -3.152-5.438c-2.852-1.5-5.767-.458-7.508.169a.5.5 0 0 1 -.545-.8 14.435 14.435 0 0 1 6.109-4.266c4.122-1.368 8.174.558 10.327 1.915a15.051 15.051 0 0 0 -.912-1.672 8.2 8.2 0 0 0 -7.919-3.931 6.831 6.831 0 0 0 -4.652 2.353.5.5 0 0 1 -.466.319.517.517 0 0 1 -.52-.5.49.49 0 0 1 .044-.2 8.422 8.422 0 0 1 2.079-4.211 7.046 7.046 0 0 1 5.213-1.758 4.934 4.934 0 0 0 -5.792-2.237 7.149 7.149 0 0 0 -4.3 3.5.5.5 0 0 1 -.924-.335 11.176 11.176 0 0 0 -1.944-8.45 11.173 11.173 0 0 0 -1.947 8.452.5.5 0 0 1 -.924.335 7.147 7.147 0 0 0 -4.3-3.5 4.932 4.932 0 0 0 -5.791 2.238 7.011 7.011 0 0 1 5.218 1.758 8.406 8.406 0 0 1 2.077 4.209.488.488 0 0 1 .046.2.5.5 0 0 1 -.5.5.531.531 0 0 1 -.48-.311 6.822 6.822 0 0 0 -4.658-2.362 8.188 8.188 0 0 0 -7.915 3.924 15.2 15.2 0 0 0 -.917 1.68c2.157-1.359 6.213-3.282 10.328-1.916a14.431 14.431 0 0 1 6.109 4.265.5.5 0 0 1 -.545.8c-1.741-.626-4.655-1.674-7.508-.168a6.108 6.108 0 0 0 -3.142 5.428 7.968 7.968 0 0 1 7.186-3.06 4.729 4.729 0 0 1 3.356 1.689 4.589 4.589 0 0 1 .897 2.711zm9.778-12.765v.008z" fill="#323c6b"/><path d="m40.19 31.253h-6.38a8.4 8.4 0 0 0 -4.438 1.247c-5.405 3.361-9.106 10.283-9.106 18.86 0 13.675 7.492 19.64 16.734 19.64s16.734-5.965 16.734-19.64c0-8.577-3.7-15.5-9.106-18.86a8.4 8.4 0 0 0 -4.438-1.247z" fill="#fcd462"/><path d="m53.73 51.36c0 13.67-7.49 19.64-16.73 19.64a15.816 15.816 0 0 1 -11.75-4.61 16.909 16.909 0 0 0 8.84 2.28c9.24 0 16.73-5.97 16.73-19.64 0-6.92-2.41-12.76-6.17-16.52 5.39 3.37 9.08 10.28 9.08 18.85z" fill="#f7be56"/><g fill="#323c6b"><path d="m21.826 42.738a.5.5 0 0 1 -.318-.885 65.242 65.242 0 0 1 19.992-10.947.5.5 0 1 1 .332.943 64.256 64.256 0 0 0 -19.687 10.775.5.5 0 0 1 -.319.114z"/><path d="m20.29 52.982a.5.5 0 0 1 -.36-.847c8.804-9.135 20.57-13.854 28.883-16.21a.5.5 0 1 1 .273.962c-8.198 2.322-19.786 6.973-28.436 15.943a.5.5 0 0 1 -.36.152z"/><path d="m21.6 60.77a.5.5 0 0 1 -.372-.833c9.114-10.179 21.875-15.252 30.974-17.715a.5.5 0 1 1 .262.965c-8.964 2.427-21.535 7.419-30.487 17.413a.5.5 0 0 1 -.377.17z"/><path d="m30.185 70.234a.5.5 0 0 1 -.333-.873c7.624-6.824 16.846-10.729 23.239-12.8a.5.5 0 1 1 .309.951c-6.3 2.044-15.387 5.889-22.882 12.6a.5.5 0 0 1 -.333.122z"/><path d="m52.174 42.738a.5.5 0 0 1 -.318-.115 64.128 64.128 0 0 0 -19.668-10.769.5.5 0 0 1 -.355-.477.5.5 0 0 1 .494-.5h.012a.507.507 0 0 1 .166.028 65.115 65.115 0 0 1 19.987 10.948.5.5 0 0 1 -.318.885z"/><path d="m53.71 52.994a.5.5 0 0 1 -.36-.153c-8.65-8.979-20.236-13.632-28.436-15.954a.5.5 0 1 1 .273-.962c8.313 2.356 20.082 7.083 28.883 16.222a.5.5 0 0 1 -.36.847z"/><path d="m52.4 60.77a.5.5 0 0 1 -.373-.167c-8.937-9.993-21.513-14.987-30.49-17.417a.5.5 0 1 1 .262-.965c9.107 2.465 21.874 7.54 30.975 17.715a.5.5 0 0 1 -.04.706.5.5 0 0 1 -.334.128z"/><path d="m49.147 66.474a.5.5 0 0 1 -.364-.157c-8.625-9.151-20.312-13.889-28.6-16.252a.5.5 0 0 1 .273-.962c8.406 2.4 20.269 7.212 29.051 16.528a.5.5 0 0 1 -.364.843z"/><path d="m43.8 70.234a.5.5 0 0 1 -.333-.127c-5.993-5.365-13.687-9.6-22.871-12.6a.5.5 0 0 1 .311-.951c9.315 3.038 17.13 7.346 23.227 12.8a.5.5 0 0 1 -.333.873z"/><path d="m56.643 49.583a.5.5 0 0 1 -.5-.465c-.013-.187-.03-.373-.049-.559a.5.5 0 0 1 .446-.548.507.507 0 0 1 .548.447q.031.293.053.59a.5.5 0 0 1 -.464.534z"/><path d="m55.806 59.833a.5.5 0 0 1 -.484-.624 31.877 31.877 0 0 0 .912-7.85.5.5 0 0 1 1 0 32.877 32.877 0 0 1 -.943 8.1.5.5 0 0 1 -.485.374z"/><path d="m37 71.5c-10.791 0-17.233-7.529-17.233-20.14 0-8.438 3.492-15.647 9.342-19.285a8.887 8.887 0 0 1 4.7-1.321h6.379a8.887 8.887 0 0 1 4.7 1.321c5.85 3.638 9.342 10.847 9.342 19.285.003 12.611-6.439 20.14-17.23 20.14zm-3.189-39.747a7.886 7.886 0 0 0 -4.175 1.171c-5.554 3.454-8.869 10.345-8.869 18.436 0 11.985 6.068 19.14 16.233 19.14s16.233-7.155 16.233-19.14c0-8.09-3.315-14.982-8.869-18.436a7.886 7.886 0 0 0 -4.175-1.171z"/></g><path d="m32.292 66.984a.651.651 0 0 1 -.209-.035l-.2-.064c-.14-.044-.279-.089-.415-.142a.65.65 0 1 1 .475-1.21c.108.042.22.077.332.112l.224.072a.65.65 0 0 1 -.209 1.266z" fill="#fff"/><path d="m28.766 65.108a.646.646 0 0 1 -.4-.139 12.848 12.848 0 0 1 -3.64-4.6.65.65 0 0 1 1.174-.569 11.546 11.546 0 0 0 3.271 4.145.65.65 0 0 1 -.4 1.161z" fill="#fff"/><path d="m24.853 66.474a.5.5 0 0 1 -.364-.843c8.782-9.316 20.644-14.131 29.05-16.531a.5.5 0 0 1 .273.962c-8.284 2.363-19.971 7.1-28.6 16.252a.5.5 0 0 1 -.359.16z" fill="#323c6b"/></svg>