<?xml version="1.0" encoding="iso-8859-1"?>
<!-- Generator: Adobe Illustrator 19.0.0, SVG Export Plug-In . SVG Version: 6.00 Build 0)  -->
<svg version="1.1" id="Layer_1" xmlns="http://www.w3.org/2000/svg" xmlns:xlink="http://www.w3.org/1999/xlink" x="0px" y="0px"
	 viewBox="0 0 256.372 256.372" style="enable-background:new 0 0 256.372 256.372;" xml:space="preserve">
<g>
	<g>
		<path d="M256.352,35.126l-0.04-0.956v-0.04h-0.028c-0.124-1.256-0.432-2.62-1.348-3.456c-0.576-0.528-1.328-0.784-2.172-0.744
			l-14.212,0.84l-0.024-0.012l-0.008,0.016L95.556,39.222l-1.9-5.78l153.592-21.116l0.028-0.004c2.664-0.432,2.76-3.872,2.552-6.4
			l0.024-0.004l-0.016-0.128c-0.02-0.168-0.044-0.352-0.068-0.54l-0.084-0.664c-0.008-0.088-0.02-0.172-0.032-0.252V4.326
			l-0.028,0.004c-0.228-1.236-0.648-2.564-1.632-3.308c-0.624-0.468-1.404-0.652-2.248-0.508l-11.72,2.016l-0.252-0.1l-0.064,0.156
			L91.556,27.054l-2.228-6.776c-0.5-1.528-1.92-2.552-3.532-2.552c-0.392,0-0.784,0.064-1.156,0.184
			c-1.372,0.452-2.268,1.644-2.472,2.984c-0.584-0.376-1.264-0.608-1.996-0.608c-0.392,0-0.784,0.064-1.156,0.184
			c-0.94,0.308-1.708,0.968-2.152,1.852c-0.06,0.116-0.056,0.244-0.104,0.364c-0.624-0.464-1.392-0.736-2.212-0.736
			c-0.392,0-0.78,0.064-1.156,0.184c-0.94,0.308-1.708,0.968-2.152,1.856c-0.044,0.092-0.044,0.196-0.08,0.288
			c-0.656-0.568-1.5-0.912-2.42-0.912c-0.228,0-0.46,0.02-0.692,0.064c-1.2,0.228-2.096,1.04-2.592,2.06
			c-0.464-0.216-0.968-0.352-1.512-0.352H63.9l-0.1,0.004c-2.048,0.08-3.648,1.864-3.568,3.968l0.124,3.312l-9.432,1.624
			c-0.388,0.064-0.752,0.108-1.084,0.152c-1.556,0.196-3.688,0.464-3.372,3.028c0.092,0.788,0.412,1.392,0.94,1.788
			c0.5,0.372,1.092,0.5,1.76,0.5c0.66,0,1.396-0.124,2.18-0.256l9.212-1.268l0.124,3.344l-4.624,0.22
			c-0.392,0.02-0.752,0.024-1.088,0.028c-1.248,0.016-2.32,0.032-3.044,0.796c-0.432,0.456-0.632,1.072-0.6,1.876
			c0.032,0.788,0.292,1.416,0.78,1.86c0.64,0.584,1.508,0.72,2.516,0.72c0.428,0,0.888-0.024,1.364-0.052l4.9-0.048l1.912,50.82
			H32.644l0.008,0.048l-32.144,35.74c-0.644,0.716-0.68,1.792-0.084,2.548c0.388,0.496,0.968,0.76,1.564,0.76
			c0.316,0,0.636-0.076,0.932-0.232l34.016-18.112l28.448,137.6h97.176l28.46-137.664l34.136,18.18
			c0.296,0.156,0.616,0.232,0.932,0.232c0.592,0,1.176-0.268,1.564-0.76c0.592-0.756,0.56-1.832-0.084-2.548L195.38,97.558
			l-0.104,0.092l0.02-0.092H65.072l-2.58-68.536c-0.032-0.82,0.596-1.512,1.388-1.544c0.02,0,0.036,0,0.056,0
			c0.528,0,0.984,0.312,1.236,0.756l0.228,1.204l2.364,62.824c0.024,0,0.04-0.012,0.064-0.012h2.204l-1.8-47.916l1.852,9.744
			c0.332,1.752,1.868,3.02,3.648,3.02c0.228,0,0.46-0.02,0.692-0.064c2.012-0.384,3.336-2.332,2.956-4.34l-1.228-6.472l1.236-0.02
			l1.992,6.06c0.504,1.528,1.92,2.552,3.532,2.552c0.392,0,0.784-0.064,1.156-0.184c0.94-0.308,1.708-0.968,2.152-1.852
			c0.06-0.116,0.056-0.244,0.104-0.364c0.624,0.464,1.392,0.736,2.212,0.736c0.392,0,0.784-0.064,1.156-0.184
			c1.372-0.452,2.268-1.644,2.476-2.984c0.584,0.376,1.264,0.608,1.996,0.608c0.392,0,0.784-0.064,1.156-0.184
			c1.936-0.636,2.992-2.72,2.372-4.66l128.66-3.22l0.368,0.232l0.156-0.244l7.748-0.192l0.004,0.004v-0.004l18.588-0.464h0.028
			c2.716-0.136,3.1-3.564,3.104-6.116h0.024v-0.14C256.364,35.45,256.36,35.29,256.352,35.126z M51.504,36.938l-0.532,0.088
			c-0.772,0.128-1.948,0.328-2.252-0.068c-0.016-0.136-0.012-0.216-0.024-0.24c0.224-0.116,0.916-0.204,1.428-0.268
			c0.356-0.044,0.748-0.092,1.172-0.164l9.14-1.572l0.036,0.992L51.504,36.938z M56.404,44.498l-0.54,0.028
			c-0.792,0.04-2,0.108-2.268-0.352c-0.004-0.116,0.004-0.192-0.004-0.22c0.248-0.084,0.916-0.092,1.416-0.096
			c0.36-0.004,0.752-0.012,1.18-0.032l4.584-0.216l0.032,0.852L56.404,44.498z M10.992,127.63l22.66-25.196l2.444,11.824
			L10.992,127.63z M194.32,102.31l22.772,25.32l-25.228-13.436L194.32,102.31z M38.424,105.734l31.804,38.008h13.304l18.78,27.336
			L67.916,248.39L38.424,105.734z M69.46,251.91l34.74-78.088l53.64,78.088H69.46z M159.76,249.698L86.972,143.742H155.9
			l33.688-38.332L159.76,249.698z M189.2,101.562l-34.576,39.344H71.552l-32.924-39.344H189.2z M246.116,2.754
			c0.284-0.048,0.42,0.012,0.508,0.084c0.48,0.36,0.72,1.5,0.864,2.504c0.44,4.184-0.304,4.696-0.572,4.748l-8.056,1.108
			l3.444-7.784L246.116,2.754z M235.34,4.61l4.284-0.736l-3.4,7.684l-3.88,0.532L235.34,4.61z M232.716,5.058l-2.956,7.384
			l-4.856,0.668l3.34-7.284L232.716,5.058z M225.532,6.294l-3.296,7.18l-4.324,0.596l2.912-6.964L225.532,6.294z M218.176,7.562
			l-2.872,6.868L92.932,31.242l-0.66-2.012L218.176,7.562z M74.004,54.806c-0.092,0.016-0.18,0.024-0.268,0.024
			c-0.68,0-1.292-0.484-1.42-1.176l-4.648-24.476l-0.012-0.364c-0.02-0.504-0.136-0.98-0.324-1.412l-0.012-0.056
			c-0.148-0.78,0.368-1.544,1.152-1.692c0.092-0.016,0.18-0.024,0.268-0.024c0.68,0,1.292,0.484,1.42,1.176l4.996,26.304
			C75.3,53.898,74.784,54.658,74.004,54.806z M74.452,37.262l1.024,3.12l-0.428,0.036L74.452,37.262z M75.72,43.946l-0.244-1.288
			l0.728-0.06l0.44,1.336L75.72,43.946z M83.36,52.478c-0.148,0.048-0.3,0.072-0.448,0.072c-0.608,0-1.176-0.388-1.376-0.996
			l-8.36-25.436c-0.248-0.756,0.168-1.576,0.924-1.824c0.148-0.048,0.3-0.072,0.448-0.072c0.608,0,1.176,0.388,1.376,0.996
			l8.36,25.436C84.532,51.406,84.116,52.23,83.36,52.478z M88.984,50.81c-0.148,0.048-0.3,0.072-0.448,0.072
			c-0.608,0-1.176-0.388-1.376-0.996L78.8,24.45c-0.248-0.756,0.168-1.576,0.924-1.824c0.148-0.048,0.3-0.072,0.448-0.072
			c0.608,0,1.176,0.388,1.376,0.996l8.36,25.436C90.156,49.742,89.74,50.562,88.984,50.81z M94.612,48.25
			c-0.148,0.048-0.3,0.072-0.448,0.072c-0.608,0-1.176-0.388-1.376-0.996l-8.36-25.436c-0.248-0.756,0.168-1.576,0.924-1.824
			c0.148-0.048,0.3-0.072,0.448-0.072c0.608,0,1.176,0.388,1.376,0.996l8.36,25.436C95.78,47.182,95.368,48.002,94.612,48.25z
			 M96.956,43.482l-0.668-2.032l126.336-7.464l-4.068,6.464L96.956,43.482z M225.604,40.278l-4.324,0.108l3.992-6.34l-0.308-0.192
			l4.86-0.292L225.604,40.278z M233.284,40.086l-4.96,0.124l4.284-6.812l4.588-0.272L233.284,40.086z M235.92,40.018l3.964-7.052
			l4.408-0.26l-4.404,7.212L235.92,40.018z M253.144,39.59l-10.556,0.264l4.46-7.308l5.84-0.344
			c0.336-0.036,0.428,0.068,0.516,0.148c0.456,0.42,0.6,1.592,0.664,2.616C254.164,39.15,253.4,39.566,253.144,39.59z"/>
	</g>
</g>
<g>
</g>
<g>
</g>
<g>
</g>
<g>
</g>
<g>
</g>
<g>
</g>
<g>
</g>
<g>
</g>
<g>
</g>
<g>
</g>
<g>
</g>
<g>
</g>
<g>
</g>
<g>
</g>
<g>
</g>
</svg>
